<?xml version="1.0" encoding="UTF-8"?>
<svg width="29px" height="58px" viewBox="0 0 29 58" version="1.1" xmlns="http://www.w3.org/2000/svg" xmlns:xlink="http://www.w3.org/1999/xlink">
    <!-- Generator: Sketch 43.2 (39069) - http://www.bohemiancoding.com/sketch -->
    <title>logo</title>
    <desc>Created with Sketch.</desc>
    <defs></defs>
    <g id="Welcome" stroke="none" stroke-width="1" fill="none" fill-rule="evenodd">
        <g id="Tablet-Portrait" transform="translate(-35.000000, -427.000000)" fill="#FFFFFF">
            <g id="logo" transform="translate(49.500000, 456.000000) rotate(-360.000000) translate(-49.500000, -456.000000) translate(35.000000, 427.000000)">
                <g id="Group">
                    <g id="Page-1">
                        <g id="logo">
                            <g id="XMLID_4_">
                                <g id="Group">
                                    <polygon id="Rectangle-path" points="1.49802074 55.6323934 0.795383503 54.3980818 23.1301021 41.3189663 23.8327393 42.5532779"></polygon>
                                    <polygon id="Shape" points="5.9116534 16.9063112 5.60345199 16.7711615 0.864974239 14.6759287 1.42643326 13.3694133 6.46992037 15.5983492"></polygon>
                                    <path d="M5.72114988,57.9924228 L0.02064637,55.5283183 L0.02064637,13.6122969 L0.68812178,13.2193159 L23.293452,0 L28.99837,2.4813943 L28.99837,8.55493112 L11.2742763,18.8659121 L11.2742763,27.3754489 L28.0723396,17.6454323 L28.7733653,18.8805154 L28.6462951,18.9546342 L9.86903279,29.8305986 L9.86903279,18.0404798 L27.5931265,7.72936105 L27.5931265,4.36563658 L6.35004918,16.6668717 L6.35004918,45.7838361 L23.2287963,35.8005344 L23.6501452,35.9850048 L28.99837,38.2910903 L28.99837,44.2898884 L5.72114988,57.9924228 L5.72114988,57.9924228 L5.72114988,57.9924228 L5.72114988,57.9924228 L5.72114988,57.9924228 Z M1.42582201,54.5866105 L5.62450585,56.4014181 L27.5931265,43.469209 L27.5931265,39.234038 L23.3249649,37.3936057 L4.94480562,48.2648171 L4.94480562,15.8373753 L5.53560422,15.4973658 L26.9059555,3.12221853 L23.3857494,1.59107363 L1.42582201,14.4332518 L1.42582201,54.5866105 L1.42582201,54.5866105 L1.42582201,54.5866105 L1.42582201,54.5866105 L1.42582201,54.5866105 Z" id="Shape"></path>
                                    <polygon id="Shape" points="11.2742763 43.9537363 9.86903279 43.9537363 9.86903279 33.3384276 27.5931944 23.0790404 27.5931944 18.7626556 23.4290117 16.9281473 11.2548525 24.1844157 10.5427564 22.9556698 23.3332506 15.3319762 28.9984379 17.827905 28.9984379 23.9065392 11.2742763 34.166133"></polygon>
                                    <polygon id="Shape" points="28.1441944 44.4945416 28.0233724 44.4430166 22.6687635 42.1206746 22.6687635 36.4620926 24.074007 36.4620926 24.074007 41.1838575 28.6888782 43.1806556"></polygon>
                                </g>
                            </g>
                        </g>
                    </g>
                </g>
            </g>
        </g>
    </g>
</svg>